<svg xmlns="http://www.w3.org/2000/svg" width="1280" height="520" viewBox="0 0 1280 520" role="img" aria-labelledby="title desc">
  <title id="title">Unburied Listening Worker workflow overview</title>
  <desc id="desc">Public-safe workflow from controlled inputs through private intake, protected review, mirror-safe metadata, and approved public-safe context.</desc>
  <rect width="1280" height="520" fill="#171411"/>
  <text x="640" y="60" text-anchor="middle" fill="#f7efe3" font-family="Arial, sans-serif" font-size="40" font-weight="700">Unburied Listening Worker</text>
  <text x="640" y="98" text-anchor="middle" fill="#d9cab8" font-family="Arial, sans-serif" font-size="20">Public surface. Private engine. Receipts always.</text>
  <g font-family="Arial, sans-serif" font-size="19" font-weight="700" text-anchor="middle">
    <rect x="45" y="190" width="175" height="110" rx="20" fill="#2b241f" stroke="#e0b15a" stroke-width="3"/>
    <text x="132" y="236" fill="#f7efe3">Controlled</text><text x="132" y="264" fill="#f7efe3">inputs</text>
    <rect x="275" y="190" width="175" height="110" rx="20" fill="#2b241f" stroke="#e0b15a" stroke-width="3"/>
    <text x="362" y="236" fill="#f7efe3">Private</text><text x="362" y="264" fill="#f7efe3">intake</text>
    <rect x="505" y="190" width="175" height="110" rx="20" fill="#202825" stroke="#76b7a1" stroke-width="3"/>
    <text x="592" y="236" fill="#f7efe3">Protected</text><text x="592" y="264" fill="#f7efe3">review</text>
    <rect x="735" y="190" width="175" height="110" rx="20" fill="#252235" stroke="#d684b8" stroke-width="3"/>
    <text x="822" y="236" fill="#f7efe3">Mirror-safe</text><text x="822" y="264" fill="#f7efe3">metadata</text>
    <rect x="965" y="190" width="240" height="110" rx="20" fill="#302622" stroke="#f7efe3" stroke-width="3"/>
    <text x="1085" y="236" fill="#f7efe3">Approved context</text><text x="1085" y="264" fill="#f7efe3">if Faith chooses</text>
  </g>
  <g stroke="#f7efe3" stroke-width="6" stroke-linecap="round">
    <path d="M225 245h45"/><path d="M455 245h45"/><path d="M685 245h45"/><path d="M915 245h45"/>
  </g>
  <g fill="#f7efe3">
    <path d="M270 245l-16-10v20z"/><path d="M500 245l-16-10v20z"/><path d="M730 245l-16-10v20z"/><path d="M960 245l-16-10v20z"/>
  </g>
  <text x="640" y="390" text-anchor="middle" fill="#d9cab8" font-family="Arial, sans-serif" font-size="24">Raw materials remain private. Public materials describe the boundary, not the engine.</text>
</svg>
